<svg width="798" height="166" viewBox="0 0 798 166" fill="none" xmlns="http://www.w3.org/2000/svg">
<g clip-path="url(#clip0_450_186)">
<path d="M395.606 82.985L398.152 150.652C398.152 150.652 398.152 151.924 399 151.924C399.849 151.924 399.849 150.652 399.849 150.652L402.394 82.985" fill="#FCBF49"/>
<path d="M395.606 82.985L398.152 150.652C398.152 150.652 398.152 151.924 399 151.924C399.849 151.924 399.849 150.652 399.849 150.652L402.394 82.985" stroke="#843511" stroke-width="0.636364"/>
<path d="M397.303 82.985L399 129.44L400.697 82.985" fill="#843511"/>
<path d="M392.604 104.846C388.707 113.361 392.054 120.319 388.16 127.753C384.267 135.187 386.701 141.31 386.44 144.72C386.179 148.131 383.389 149.078 384.093 149.871C384.798 150.664 387.715 149.093 388.853 144.562C389.991 140.031 387.275 137.422 391.944 128.306C396.613 119.19 392.903 115.08 397.589 106.942" fill="#FCBF49"/>
<path d="M392.604 104.846C388.707 113.361 392.054 120.319 388.16 127.753C384.267 135.187 386.701 141.31 386.44 144.72C386.179 148.131 383.389 149.078 384.093 149.871C384.798 150.664 387.715 149.093 388.853 144.562C389.991 140.031 387.275 137.422 391.944 128.306C396.613 119.19 392.903 115.08 397.589 106.942" stroke="#843511" stroke-width="0.636364"/>
<path d="M393.679 107.013C390.655 115.489 393.84 121.116 389.781 128.299C394.291 123.156 391.318 116.49 395.257 107.767" fill="#843511"/>
<path d="M402.394 82.985L399.849 15.3184C399.849 15.3184 399.849 14.0456 399 14.0456C398.152 14.0456 398.152 15.3184 398.152 15.3184L395.606 82.985" fill="#FCBF49"/>
<path d="M402.394 82.985L399.849 15.3184C399.849 15.3184 399.849 14.0456 399 14.0456C398.152 14.0456 398.152 15.3184 398.152 15.3184L395.606 82.985" stroke="#843511" stroke-width="0.636364"/>
<path d="M400.697 82.985L399 36.5305L397.303 82.985" fill="#843511"/>
<path d="M405.396 61.1243C409.293 52.6091 405.946 45.6507 409.84 38.2171C413.733 30.7835 411.299 24.6601 411.56 21.2498C411.821 17.8394 414.612 16.8918 413.907 16.0991C413.202 15.3063 410.285 16.8775 409.147 21.4082C408.009 25.9388 410.725 28.5479 406.056 37.6637C401.387 46.7796 405.097 50.8896 400.411 59.0277" fill="#FCBF49"/>
<path d="M405.396 61.1243C409.293 52.6091 405.946 45.6507 409.84 38.2171C413.733 30.7835 411.299 24.6601 411.56 21.2498C411.821 17.8394 414.612 16.8918 413.907 16.0991C413.202 15.3063 410.285 16.8775 409.147 21.4081C408.009 25.9388 410.725 28.5479 406.056 37.6637C401.387 46.7796 405.097 50.8896 400.411 59.0277" stroke="#843511" stroke-width="0.636364"/>
<path d="M404.321 58.9575C407.345 50.481 404.16 44.8544 408.219 37.6709C403.709 42.8144 406.683 49.4804 402.743 58.2035" fill="#843511"/>
<path d="M399 79.5911L331.333 82.1365C331.333 82.1365 330.061 82.1365 330.061 82.985C330.061 83.8335 331.333 83.8335 331.333 83.8335L399 86.3789" fill="#FCBF49"/>
<path d="M399 79.5911L331.333 82.1365C331.333 82.1365 330.061 82.1365 330.061 82.985C330.061 83.8335 331.333 83.8335 331.333 83.8335L399 86.3789" stroke="#843511" stroke-width="0.636364"/>
<path d="M399 81.288L352.545 82.985L399 84.682" fill="#843511"/>
<path d="M377.139 76.5892C368.624 72.6921 361.666 76.0387 354.232 72.1451C346.798 68.2516 340.675 70.6857 337.265 70.4248C333.854 70.1639 332.907 67.3735 332.114 68.0781C331.321 68.7827 332.892 71.6999 337.423 72.8382C341.954 73.9764 344.563 71.2603 353.679 75.929C362.795 80.5977 366.905 76.8881 375.043 81.5743" fill="#FCBF49"/>
<path d="M377.139 76.5892C368.624 72.6921 361.666 76.0387 354.232 72.1451C346.798 68.2516 340.675 70.6857 337.265 70.4248C333.854 70.1639 332.907 67.3735 332.114 68.0781C331.321 68.7827 332.892 71.6999 337.423 72.8382C341.954 73.9764 344.563 71.2603 353.679 75.929C362.795 80.5977 366.905 76.8881 375.043 81.5743" stroke="#843511" stroke-width="0.636364"/>
<path d="M374.972 77.6636C366.496 74.6402 360.869 77.8248 353.686 73.7657C358.829 78.2757 365.495 75.3025 374.218 79.2419" fill="#843511"/>
<path d="M399 86.3789L466.667 83.8335C466.667 83.8335 467.939 83.8335 467.939 82.985C467.939 82.1365 466.667 82.1365 466.667 82.1365L399 79.5911" fill="#FCBF49"/>
<path d="M399 86.3789L466.667 83.8335C466.667 83.8335 467.939 83.8335 467.939 82.985C467.939 82.1365 466.667 82.1365 466.667 82.1365L399 79.5911" stroke="#843511" stroke-width="0.636364"/>
<path d="M399 84.682L445.455 82.985L399 81.288" fill="#843511"/>
<path d="M420.861 89.3808C429.376 93.2779 436.334 89.9313 443.768 93.8249C451.202 97.7184 457.325 95.2843 460.735 95.5452C464.146 95.8061 465.093 98.5965 465.886 97.8919C466.679 97.1873 465.108 94.2701 460.577 93.1318C456.046 91.9936 453.437 94.7097 444.321 90.041C435.205 85.3723 431.095 89.082 422.957 84.3957" fill="#FCBF49"/>
<path d="M420.861 89.3808C429.376 93.2779 436.334 89.9313 443.768 93.8249C451.202 97.7184 457.325 95.2843 460.735 95.5452C464.146 95.8061 465.093 98.5965 465.886 97.8919C466.679 97.1873 465.108 94.2701 460.577 93.1318C456.046 91.9936 453.437 94.7097 444.321 90.041C435.205 85.3723 431.095 89.082 422.957 84.3957" stroke="#843511" stroke-width="0.636364"/>
<path d="M423.028 88.3064C431.504 91.3297 437.131 88.1451 444.314 92.2042C439.171 87.6943 432.505 90.6674 423.782 86.728" fill="#843511"/>
<path d="M396.6 80.5851L350.553 130.233C350.553 130.233 349.653 131.133 350.253 131.733C350.852 132.332 351.752 131.433 351.752 131.433L401.4 85.3849" fill="#FCBF49"/>
<path d="M396.6 80.5851L350.553 130.233C350.553 130.233 349.653 131.133 350.253 131.733C350.852 132.332 351.752 131.433 351.752 131.433L401.4 85.3849" stroke="#843511" stroke-width="0.636364"/>
<path d="M397.8 81.7851L366.152 115.833L400.2 84.1849" fill="#843511"/>
<path d="M379.02 93.9203C370.243 97.1858 367.689 104.473 359.679 106.976C351.67 109.479 349.061 115.53 346.465 117.757C343.869 119.984 341.226 118.681 341.164 119.74C341.101 120.798 344.275 121.75 348.284 119.352C352.292 116.953 352.217 113.187 361.964 110.043C371.711 106.898 371.994 101.369 381.062 98.9278" fill="#FCBF49"/>
<path d="M379.02 93.9203C370.243 97.1858 367.689 104.473 359.679 106.976C351.67 109.479 349.061 115.53 346.465 117.757C343.869 119.984 341.226 118.681 341.164 119.74C341.101 120.798 344.275 121.75 348.284 119.352C352.292 116.953 352.217 113.187 361.964 110.043C371.711 106.898 371.994 101.369 381.062 98.9278" stroke="#843511" stroke-width="0.636364"/>
<path d="M378.247 96.2122C370.116 100.068 368.389 106.299 360.439 108.508C367.265 108.06 369.876 101.244 378.83 97.8614" fill="#843511"/>
<path d="M401.4 85.3849L447.448 35.7374C447.448 35.7374 448.348 34.8375 447.748 34.2375C447.148 33.6375 446.248 34.5375 446.248 34.5375L396.6 80.5851" fill="#FCBF49"/>
<path d="M401.4 85.3849L447.448 35.7374C447.448 35.7374 448.348 34.8375 447.748 34.2375C447.148 33.6375 446.248 34.5375 446.248 34.5375L396.6 80.5851" stroke="#843511" stroke-width="0.636364"/>
<path d="M400.2 84.1849L431.848 50.1367L397.8 81.7851" fill="#843511"/>
<path d="M418.98 72.0497C427.757 68.7842 430.311 61.4975 438.321 58.9943C446.33 56.4911 448.939 50.44 451.535 48.213C454.131 45.986 456.774 47.2891 456.836 46.2303C456.899 45.1715 453.725 44.2197 449.716 46.6185C445.708 49.0173 445.784 52.7828 436.036 55.9274C426.289 59.072 426.006 64.6013 416.938 67.0422" fill="#FCBF49"/>
<path d="M418.98 72.0497C427.757 68.7842 430.311 61.4975 438.321 58.9943C446.33 56.4911 448.939 50.44 451.535 48.213C454.131 45.986 456.774 47.2891 456.836 46.2303C456.899 45.1715 453.725 44.2197 449.716 46.6185C445.708 49.0173 445.784 52.7828 436.036 55.9274C426.289 59.072 426.006 64.6013 416.938 67.0422" stroke="#843511" stroke-width="0.636364"/>
<path d="M419.753 69.7578C427.884 65.9018 429.611 59.6714 437.561 57.4621C430.735 57.9101 428.124 64.726 419.17 68.1086" fill="#843511"/>
<path d="M401.4 80.5851L351.752 34.5375C351.752 34.5375 350.852 33.6375 350.253 34.2375C349.653 34.8375 350.552 35.7374 350.552 35.7374L396.6 85.3849" fill="#FCBF49"/>
<path d="M401.4 80.5851L351.752 34.5375C351.752 34.5375 350.852 33.6375 350.253 34.2375C349.653 34.8375 350.552 35.7374 350.552 35.7374L396.6 85.3849" stroke="#843511" stroke-width="0.636364"/>
<path d="M400.2 81.7851L366.152 50.1367L397.8 84.185" fill="#843511"/>
<path d="M388.065 63.0047C384.799 54.2278 377.513 51.6739 375.009 43.6644C372.506 35.6549 366.455 33.0462 364.228 30.4502C362.001 27.8542 363.304 25.2111 362.245 25.1488C361.187 25.0864 360.235 28.2602 362.634 32.2687C365.032 36.2773 368.798 36.2015 371.942 45.9487C375.087 55.6958 380.616 55.9789 383.057 65.0472" fill="#FCBF49"/>
<path d="M388.065 63.0047C384.799 54.2278 377.513 51.6739 375.009 43.6644C372.506 35.6549 366.455 33.0462 364.228 30.4502C362.001 27.8542 363.304 25.2111 362.245 25.1488C361.187 25.0864 360.235 28.2602 362.634 32.2687C365.032 36.2773 368.798 36.2015 371.942 45.9487C375.087 55.6958 380.616 55.9789 383.057 65.0472" stroke="#843511" stroke-width="0.636364"/>
<path d="M385.773 62.2322C381.917 54.1006 375.686 52.3738 373.477 44.4241C373.925 51.2501 380.741 53.8614 384.124 62.8151" fill="#843511"/>
<path d="M396.6 85.3849L446.248 131.433C446.248 131.433 447.148 132.332 447.748 131.733C448.348 131.133 447.448 130.233 447.448 130.233L401.4 80.5851" fill="#FCBF49"/>
<path d="M396.6 85.3849L446.248 131.433C446.248 131.433 447.148 132.332 447.748 131.733C448.348 131.133 447.448 130.233 447.448 130.233L401.4 80.5851" stroke="#843511" stroke-width="0.636364"/>
<path d="M397.8 84.1849L431.848 115.833L400.2 81.7851" fill="#843511"/>
<path d="M409.935 102.965C413.201 111.742 420.488 114.296 422.991 122.306C425.494 130.315 431.545 132.924 433.772 135.52C435.999 138.116 434.696 140.759 435.755 140.821C436.814 140.884 437.765 137.71 435.367 133.701C432.968 129.693 429.202 129.769 426.058 120.021C422.913 110.274 417.384 109.991 414.943 100.923" fill="#FCBF49"/>
<path d="M409.935 102.965C413.201 111.742 420.488 114.296 422.991 122.306C425.494 130.315 431.545 132.924 433.772 135.52C435.999 138.116 434.696 140.759 435.755 140.821C436.814 140.884 437.765 137.71 435.367 133.701C432.968 129.693 429.202 129.769 426.058 120.021C422.913 110.274 417.384 109.991 414.943 100.923" stroke="#843511" stroke-width="0.636364"/>
<path d="M412.227 103.738C416.083 111.869 422.314 113.596 424.523 121.546C424.075 114.72 417.259 112.109 413.876 103.155" fill="#843511"/>
<path d="M395.864 81.6862L372.321 145.176C372.321 145.176 371.834 146.352 372.618 146.677C373.402 147.001 373.889 145.826 373.889 145.826L402.136 84.2838" fill="#FCBF49"/>
<path d="M395.864 81.6862L372.321 145.176C372.321 145.176 371.834 146.352 372.618 146.677C373.402 147.001 373.889 145.826 373.889 145.826L402.136 84.2838" stroke="#843511" stroke-width="0.636364"/>
<path d="M397.432 82.3356L381.223 125.903L400.568 83.6344" fill="#843511"/>
<path d="M384.725 100.734C377.866 107.11 378.295 114.819 371.853 120.197C365.411 125.575 365.317 132.163 363.771 135.214C362.225 138.265 359.284 138.073 359.632 139.075C359.979 140.077 363.276 139.742 366.061 135.992C368.847 132.241 367.336 128.791 375.137 122.156C382.939 115.521 381.085 110.304 388.529 104.579" fill="#FCBF49"/>
<path d="M384.725 100.734C377.866 107.11 378.295 114.819 371.853 120.197C365.411 125.575 365.317 132.163 363.771 135.214C362.225 138.265 359.284 138.073 359.632 139.075C359.979 140.077 363.276 139.742 366.061 135.992C368.847 132.241 367.336 128.791 375.137 122.156C382.939 115.521 381.085 110.304 388.529 104.579" stroke="#843511" stroke-width="0.636364"/>
<path d="M384.889 103.147C378.852 109.821 379.641 116.238 373.142 121.322C379.277 118.296 379.081 110.999 386.058 104.448" fill="#843511"/>
<path d="M402.136 84.2838L425.679 20.7939C425.679 20.7939 426.166 19.618 425.382 19.2933C424.598 18.9686 424.111 20.1445 424.111 20.1445L395.864 81.6862" fill="#FCBF49"/>
<path d="M402.136 84.2838L425.679 20.7939C425.679 20.7939 426.166 19.618 425.382 19.2933C424.598 18.9686 424.111 20.1445 424.111 20.1445L395.864 81.6862" stroke="#843511" stroke-width="0.636364"/>
<path d="M400.568 83.6344L416.777 40.0666L397.432 82.3356" fill="#843511"/>
<path d="M413.275 65.2359C420.134 58.8602 419.705 51.1508 426.147 45.7731C432.589 40.3953 432.683 33.8066 434.229 30.7556C435.775 27.7047 438.716 27.8971 438.368 26.8951C438.021 25.893 434.724 26.2282 431.939 29.9784C429.154 33.7286 430.664 37.1785 422.863 43.8138C415.061 50.4491 416.915 55.6659 409.471 61.3912" fill="#FCBF49"/>
<path d="M413.275 65.2359C420.134 58.8602 419.705 51.1508 426.147 45.7731C432.589 40.3953 432.683 33.8066 434.229 30.7556C435.775 27.7047 438.716 27.8971 438.368 26.8951C438.021 25.893 434.724 26.2282 431.939 29.9784C429.154 33.7286 430.664 37.1785 422.863 43.8138C415.061 50.4491 416.915 55.6659 409.471 61.3912" stroke="#843511" stroke-width="0.636364"/>
<path d="M413.111 62.8229C419.148 56.1486 418.359 49.7316 424.858 44.6483C418.724 47.6744 418.919 54.9707 411.942 61.5222" fill="#843511"/>
<path d="M400.299 79.8494L336.809 56.3062C336.809 56.3062 335.633 55.8191 335.308 56.603C334.984 57.3869 336.159 57.874 336.159 57.874L397.701 86.1206" fill="#FCBF49"/>
<path d="M400.299 79.8494L336.809 56.3062C336.809 56.3062 335.633 55.8191 335.308 56.603C334.984 57.3869 336.159 57.874 336.159 57.874L397.701 86.1206" stroke="#843511" stroke-width="0.636364"/>
<path d="M399.649 81.4172L356.082 65.2076L398.351 84.5528" fill="#843511"/>
<path d="M381.251 68.7103C374.875 61.8512 367.166 62.2802 361.788 55.8383C356.41 49.3965 349.822 49.302 346.771 47.7559C343.72 46.2097 343.912 43.2691 342.91 43.6167C341.908 43.9643 342.243 47.2607 345.993 50.0461C349.744 52.8315 353.194 51.3206 359.829 59.1224C366.464 66.9242 371.681 65.0697 377.406 72.5136" fill="#FCBF49"/>
<path d="M381.251 68.7103C374.875 61.8512 367.166 62.2802 361.788 55.8383C356.41 49.3965 349.822 49.302 346.771 47.7559C343.72 46.2097 343.912 43.2691 342.91 43.6167C341.908 43.9643 342.243 47.2607 345.993 50.0461C349.744 52.8315 353.194 51.3206 359.829 59.1224C366.464 66.9242 371.681 65.0697 377.406 72.5136" stroke="#843511" stroke-width="0.636364"/>
<path d="M378.838 68.8737C372.164 62.8367 365.747 63.6256 360.663 57.1266C363.689 63.2615 370.986 63.0657 377.537 70.0434" fill="#843511"/>
<path d="M397.701 86.1206L461.191 109.664C461.191 109.664 462.367 110.151 462.692 109.367C463.016 108.583 461.841 108.096 461.841 108.096L400.299 79.8494" fill="#FCBF49"/>
<path d="M397.701 86.1206L461.191 109.664C461.191 109.664 462.367 110.151 462.692 109.367C463.016 108.583 461.841 108.096 461.841 108.096L400.299 79.8494" stroke="#843511" stroke-width="0.636364"/>
<path d="M398.351 84.5528L441.918 100.762L399.649 81.4172" fill="#843511"/>
<path d="M416.749 97.2597C423.125 104.119 430.834 103.69 436.212 110.132C441.59 116.574 448.178 116.668 451.229 118.214C454.28 119.76 454.088 122.701 455.09 122.353C456.092 122.006 455.757 118.709 452.007 115.924C448.256 113.138 444.806 114.649 438.171 106.848C431.536 99.0458 426.319 100.9 420.594 93.4564" fill="#FCBF49"/>
<path d="M416.749 97.2597C423.125 104.119 430.834 103.69 436.212 110.132C441.59 116.574 448.178 116.668 451.229 118.214C454.28 119.76 454.088 122.701 455.09 122.353C456.092 122.006 455.757 118.709 452.007 115.924C448.256 113.138 444.806 114.649 438.171 106.848C431.536 99.0458 426.319 100.9 420.594 93.4564" stroke="#843511" stroke-width="0.636364"/>
<path d="M419.162 97.0962C425.836 103.133 432.253 102.344 437.337 108.843C434.311 102.708 427.014 102.904 420.463 95.9266" fill="#843511"/>
<path d="M397.701 79.8494L336.159 108.096C336.159 108.096 334.984 108.583 335.308 109.367C335.633 110.151 336.809 109.664 336.809 109.664L400.299 86.1206" fill="#FCBF49"/>
<path d="M397.701 79.8494L336.159 108.096C336.159 108.096 334.984 108.583 335.308 109.367C335.633 110.151 336.809 109.664 336.809 109.664L400.299 86.1206" stroke="#843511" stroke-width="0.636364"/>
<path d="M398.351 81.4172L356.082 100.762L399.649 84.5528" fill="#843511"/>
<path d="M376.356 85.4418C366.997 85.0999 361.849 90.8546 353.492 90.1022C345.134 89.3498 340.408 93.9419 337.158 95.006C333.907 96.07 331.964 93.8546 331.501 94.8089C331.038 95.7633 333.606 97.8572 338.227 97.175C342.849 96.4928 344.22 92.9849 354.428 93.8097C364.637 94.6346 367.014 89.6345 376.327 90.8497" fill="#FCBF49"/>
<path d="M376.356 85.4418C366.997 85.0999 361.849 90.8546 353.492 90.1022C345.134 89.3498 340.408 93.9419 337.158 95.006C333.907 96.07 331.964 93.8546 331.501 94.8089C331.038 95.7633 333.606 97.8572 338.227 97.175C342.849 96.4928 344.22 92.9849 354.428 93.8097C364.637 94.6346 367.014 89.6345 376.327 90.8497" stroke="#843511" stroke-width="0.636364"/>
<path d="M374.765 87.2636C365.777 87.7142 361.797 92.8096 353.607 91.8085C360.085 94.0068 365.106 88.709 374.672 89.0103" fill="#843511"/>
<path d="M400.299 86.1206L461.841 57.874C461.841 57.874 463.016 57.387 462.692 56.6031C462.367 55.8192 461.191 56.3062 461.191 56.3062L397.701 79.8494" fill="#FCBF49"/>
<path d="M400.299 86.1206L461.841 57.874C461.841 57.874 463.016 57.387 462.692 56.6031C462.367 55.8192 461.191 56.3062 461.191 56.3062L397.701 79.8494" stroke="#843511" stroke-width="0.636364"/>
<path d="M399.649 84.5528L441.918 65.2076L398.351 81.4172" fill="#843511"/>
<path d="M421.644 80.5282C431.003 80.8701 436.151 75.1154 444.508 75.8678C452.866 76.6202 457.592 72.0281 460.843 70.964C464.093 69.9 466.036 72.1154 466.499 71.1611C466.962 70.2067 464.394 68.1128 459.773 68.795C455.151 69.4772 453.78 72.9851 443.572 72.1603C433.363 71.3354 430.986 76.3355 421.674 75.1203" fill="#FCBF49"/>
<path d="M421.644 80.5282C431.003 80.8701 436.151 75.1154 444.508 75.8678C452.866 76.6202 457.592 72.0281 460.843 70.964C464.093 69.9 466.036 72.1154 466.499 71.1611C466.962 70.2067 464.394 68.1128 459.773 68.795C455.151 69.4772 453.78 72.9851 443.572 72.1603C433.363 71.3354 430.986 76.3355 421.674 75.1203" stroke="#843511" stroke-width="0.636364"/>
<path d="M423.235 78.7064C432.223 78.2558 436.203 73.1604 444.393 74.1615C437.915 71.9632 432.894 77.261 423.328 76.9597" fill="#843511"/>
<path d="M402.136 81.6862L373.889 20.1444C373.889 20.1444 373.402 18.9686 372.618 19.2933C371.834 19.618 372.321 20.7938 372.321 20.7938L395.864 84.2838" fill="#FCBF49"/>
<path d="M402.136 81.6862L373.889 20.1444C373.889 20.1444 373.402 18.9686 372.618 19.2933C371.834 19.618 372.321 20.7938 372.321 20.7938L395.864 84.2838" stroke="#843511" stroke-width="0.636364"/>
<path d="M400.568 82.3356L381.223 40.0666L397.432 83.6344" fill="#843511"/>
<path d="M396.543 60.3408C396.885 50.9824 391.13 45.8343 391.883 37.4766C392.635 29.1189 388.043 24.3931 386.979 21.1425C385.915 17.8919 388.13 15.9486 387.176 15.4858C386.222 15.0231 384.128 17.591 384.81 22.2124C385.492 26.8338 389 28.2048 388.175 38.4134C387.35 48.622 392.35 50.9995 391.135 60.3115" fill="#FCBF49"/>
<path d="M396.543 60.3408C396.885 50.9824 391.13 45.8343 391.883 37.4766C392.635 29.1189 388.043 24.3931 386.979 21.1425C385.915 17.8919 388.13 15.9486 387.176 15.4858C386.222 15.0231 384.128 17.591 384.81 22.2124C385.492 26.8338 389 28.2048 388.175 38.4134C387.35 48.622 392.35 50.9995 391.135 60.3115" stroke="#843511" stroke-width="0.636364"/>
<path d="M394.721 58.7501C394.271 49.7618 389.175 45.7822 390.177 37.5922C387.978 44.0701 393.276 49.0908 392.975 58.6574" fill="#843511"/>
<path d="M395.864 84.2838L424.111 145.826C424.111 145.826 424.598 147.001 425.382 146.677C426.166 146.352 425.679 145.176 425.679 145.176L402.136 81.6862" fill="#FCBF49"/>
<path d="M395.864 84.2838L424.111 145.826C424.111 145.826 424.598 147.001 425.382 146.677C426.166 146.352 425.679 145.176 425.679 145.176L402.136 81.6862" stroke="#843511" stroke-width="0.636364"/>
<path d="M397.432 83.6344L416.777 125.903L400.568 82.3356" fill="#843511"/>
<path d="M401.457 105.629C401.115 114.988 406.87 120.136 406.117 128.493C405.365 136.851 409.957 141.577 411.021 144.828C412.085 148.078 409.87 150.021 410.824 150.484C411.778 150.947 413.872 148.379 413.19 143.758C412.508 139.136 409 137.765 409.825 127.557C410.65 117.348 405.65 114.971 406.865 105.658" fill="#FCBF49"/>
<path d="M401.457 105.629C401.115 114.988 406.87 120.136 406.117 128.493C405.365 136.851 409.957 141.577 411.021 144.828C412.085 148.078 409.87 150.021 410.824 150.484C411.778 150.947 413.872 148.379 413.19 143.758C412.508 139.136 409 137.765 409.825 127.557C410.65 117.348 405.65 114.971 406.865 105.658" stroke="#843511" stroke-width="0.636364"/>
<path d="M403.279 107.22C403.729 116.208 408.825 120.188 407.823 128.378C410.022 121.9 404.724 116.879 405.025 107.313" fill="#843511"/>
<path d="M399 110.561C414.23 110.561 426.576 98.2147 426.576 82.985C426.576 67.7553 414.23 55.4092 399 55.4092C383.77 55.4092 371.424 67.7553 371.424 82.985C371.424 98.2147 383.77 110.561 399 110.561Z" fill="#FCBF49" stroke="#843511" stroke-width="0.424242"/>
<path d="M416.394 77.0456C411.515 72.8032 405.364 72.1668 401.97 75.3486C399.506 78.642 399.726 82.5199 402.606 86.5911C402.394 86.5911 401.97 86.8032 401.758 87.0153C399.618 82.9414 399.25 78.7463 400.697 74.9244C405.364 71.1062 411.727 70.682 416.394 77.0456Z" fill="#843511"/>
<path d="M408.758 75.7729C406 75.7729 405.364 76.4092 404.091 77.4698C402.818 78.5304 402.182 78.3183 401.97 78.5304C401.758 78.7426 401.97 79.3789 402.394 79.1668C402.818 78.9547 403.667 78.5304 404.939 77.4698C406.212 76.4092 407.485 76.4092 408.758 76.4092C412.576 76.4092 414.697 79.591 415.121 79.3789C415.545 79.1668 413 75.7729 408.758 75.7729Z" fill="#843511"/>
<path d="M413.636 79.3789C410.879 76.4092 405.788 76.1971 403.667 79.5911H404.515C406.636 76.1971 411.727 77.682 412.152 79.1668V79.5911" fill="#843511"/>
<path d="M408.333 81.0759C409.388 81.0759 410.242 80.2212 410.242 79.1668C410.242 78.1125 409.388 77.2577 408.333 77.2577C407.279 77.2577 406.424 78.1125 406.424 79.1668C406.424 80.2212 407.279 81.0759 408.333 81.0759Z" fill="#843511"/>
<path d="M403.667 79.5911C405.788 81.5001 410.455 81.7123 413.636 79.3789L412.152 79.1668C410.03 81.5001 406.636 81.288 404.515 79.5911V79.1668" fill="#843511"/>
<path d="M413.848 80.4395C410.242 83.1971 406.636 82.985 404.515 81.7123C402.394 80.4395 402.394 80.0153 402.818 80.0153C403.242 80.0153 403.667 80.4395 405.364 81.288C407.061 82.1365 409.606 82.1365 413.848 80.4395Z" fill="#843511"/>
<path d="M403.455 86.8032C403.671 86.8803 403.863 87.0147 404.01 87.1921C404.156 87.3696 404.252 87.5835 404.286 87.811C404.321 88.0385 404.293 88.2711 404.206 88.4841C404.119 88.6971 403.976 88.8825 403.792 89.0205C403.608 89.1586 403.39 89.2442 403.161 89.2681C402.932 89.2921 402.701 89.2536 402.492 89.1567C402.283 89.0598 402.105 88.9081 401.976 88.7178C401.846 88.5274 401.771 88.3056 401.758 88.0759C401.545 88.5001 400.697 89.7729 399 89.7729H398.576L399 90.4092C399.424 90.4092 400.697 90.4092 401.545 89.7729C401.725 90.0302 401.965 90.2393 402.244 90.3818C402.524 90.5243 402.834 90.5958 403.147 90.59C403.461 90.5841 403.768 90.5011 404.042 90.3482C404.316 90.1954 404.548 89.9774 404.718 89.7136C404.887 89.4497 404.989 89.1482 405.014 88.8356C405.04 88.523 404.988 88.2089 404.863 87.9212C404.738 87.6335 404.544 87.381 404.299 87.186C404.053 86.991 403.763 86.8595 403.455 86.8032Z" fill="#843511"/>
<path d="M406 95.7122C404.091 94.4395 403.242 92.5304 401.121 92.5304C400.697 92.5304 399.848 92.7425 399 93.1668H398.576L399 93.8032C399.848 93.8032 401.121 92.7425 402.606 93.591C404.091 94.4395 404.939 95.288 406 95.7122Z" fill="#843511"/>
<path d="M405.364 95.7123C401.121 94.4395 400.273 95.288 399 95.288H398.576L399 96.1365C400.697 96.1365 401.545 94.8638 405.364 95.7123Z" fill="#843511"/>
<path d="M406 95.7122C401.333 95.288 402.818 98.0456 399 98.0456H398.576L399 98.6819C403.667 98.6819 401.545 96.1365 406 95.7122Z" fill="#843511"/>
<path d="M402.818 102.5C402.818 101.487 402.416 100.516 401.7 99.8003C400.984 99.0842 400.013 98.6819 399 98.6819C397.987 98.6819 397.016 99.0842 396.3 99.8003C395.584 100.516 395.182 101.487 395.182 102.5C395.386 101.641 395.874 100.875 396.567 100.328C397.259 99.78 398.117 99.4821 399 99.4821C399.883 99.4821 400.741 99.78 401.433 100.328C402.126 100.875 402.614 101.641 402.818 102.5Z" fill="#843511"/>
<path d="M381.606 77.0456C386.485 72.8032 392.636 72.1668 396.03 75.3486C398.494 78.642 398.274 82.5199 395.394 86.5911C395.606 86.5911 396.03 86.8032 396.243 87.0153C398.382 82.9414 398.75 78.7463 397.303 74.9244C392.636 71.1062 386.273 70.682 381.606 77.0456Z" fill="#843511"/>
<path d="M389.242 75.7729C392 75.7729 392.636 76.4092 393.909 77.4698C395.182 78.5304 395.818 78.3183 396.03 78.5304C396.242 78.7426 396.03 79.3789 395.606 79.1668C395.182 78.9547 394.333 78.5304 393.061 77.4698C391.788 76.4092 390.515 76.4092 389.242 76.4092C385.424 76.4092 383.303 79.591 382.879 79.3789C382.455 79.1668 385 75.7729 389.242 75.7729Z" fill="#843511"/>
<path d="M384.364 79.3789C387.121 76.4092 392.212 76.1971 394.333 79.5911H393.485C391.364 76.1971 386.273 77.682 385.849 79.1668V79.5911" fill="#843511"/>
<path d="M389.667 81.0759C388.612 81.0759 387.758 80.2212 387.758 79.1668C387.758 78.1125 388.612 77.2577 389.667 77.2577C390.721 77.2577 391.576 78.1125 391.576 79.1668C391.576 80.2212 390.721 81.0759 389.667 81.0759Z" fill="#843511"/>
<path d="M394.333 79.5911C392.212 81.5001 387.546 81.7123 384.364 79.3789L385.849 79.1668C387.97 81.5001 391.364 81.288 393.485 79.5911V79.1668" fill="#843511"/>
<path d="M384.152 80.4395C387.758 83.1971 391.364 82.985 393.485 81.7123C395.606 80.4395 395.606 80.0153 395.182 80.0153C394.758 80.0153 394.333 80.4395 392.636 81.288C390.939 82.1365 388.394 82.1365 384.152 80.4395Z" fill="#843511"/>
<path d="M394.546 86.8032C394.329 86.8803 394.137 87.0147 393.99 87.1921C393.844 87.3696 393.748 87.5835 393.714 87.811C393.679 88.0385 393.707 88.2711 393.794 88.4841C393.881 88.6971 394.024 88.8825 394.208 89.0205C394.392 89.1586 394.61 89.2442 394.839 89.2681C395.068 89.2921 395.299 89.2536 395.508 89.1567C395.717 89.0598 395.895 88.9081 396.025 88.7178C396.154 88.5274 396.229 88.3056 396.242 88.0759C396.455 88.5001 397.303 89.7729 399 89.7729H399.424L399 90.4092C398.576 90.4092 397.303 90.4092 396.455 89.7729C396.275 90.0302 396.035 90.2393 395.756 90.3818C395.477 90.5243 395.166 90.5958 394.853 90.59C394.539 90.5841 394.232 90.5011 393.958 90.3482C393.684 90.1954 393.452 89.9774 393.283 89.7136C393.113 89.4497 393.011 89.1482 392.986 88.8356C392.96 88.523 393.012 88.2089 393.137 87.9212C393.262 87.6335 393.456 87.381 393.701 87.186C393.947 86.991 394.237 86.8595 394.546 86.8032Z" fill="#843511"/>
<path d="M392 95.7122C393.909 94.4395 394.758 92.5304 396.879 92.5304C397.303 92.5304 398.152 92.7425 399 93.1668H399.424L399 93.8032C398.152 93.8032 396.879 92.7425 395.394 93.591C393.909 94.4395 393.061 95.288 392 95.7122Z" fill="#843511"/>
<path d="M392.636 95.7123C396.879 94.4395 397.727 95.288 399 95.288H399.424L399 96.1365C397.303 96.1365 396.455 94.8638 392.636 95.7123Z" fill="#843511"/>
<path d="M392 95.7122C396.667 95.288 395.182 98.0456 399 98.0456H399.424L399 98.6819C394.333 98.6819 396.455 96.1365 392 95.7122Z" fill="#843511"/>
<path d="M395.182 102.5C395.182 101.487 395.584 100.516 396.3 99.8003C397.016 99.0842 397.987 98.6819 399 98.6819C400.013 98.6819 400.984 99.0842 401.7 99.8003C402.416 100.516 402.818 101.487 402.818 102.5C402.614 101.641 402.126 100.875 401.434 100.328C400.741 99.78 399.883 99.4821 399 99.4821C398.117 99.4821 397.259 99.78 396.567 100.328C395.874 100.875 395.386 101.641 395.182 102.5Z" fill="#843511"/>
</g>
<defs>
<clipPath id="clip0_450_186">
<rect width="140" height="140" fill="white" transform="translate(329 12.985)"/>
</clipPath>
</defs>
</svg>
